<mxfile host="Electron" modified="2023-06-24T08:59:42.422Z" agent="Mozilla/5.0 (Windows NT 10.0; Win64; x64) AppleWebKit/537.36 (KHTML, like Gecko) draw.io/21.2.8 Chrome/112.0.5615.165 Electron/24.2.0 Safari/537.36" etag="hMogAFbMP55_Ej8lsFMB" version="21.2.8" type="device">
  <diagram name="Page-1" id="JdGf0F57T3wEn0ILLzj-">
    <mxGraphModel dx="780" dy="1611" grid="1" gridSize="10" guides="1" tooltips="1" connect="1" arrows="1" fold="1" page="1" pageScale="1" pageWidth="850" pageHeight="1100" math="0" shadow="0">
      <root>
        <mxCell id="0" />
        <mxCell id="1" parent="0" />
        <mxCell id="kZu3cFb_gc1OyNFdf9nU-2" value="USER" style="shape=umlActor;verticalLabelPosition=bottom;verticalAlign=top;html=1;outlineConnect=0;labelBackgroundColor=none;" vertex="1" parent="1">
          <mxGeometry x="640" y="200" width="30" height="60" as="geometry" />
        </mxCell>
        <mxCell id="kZu3cFb_gc1OyNFdf9nU-5" value="ADMIN" style="shape=umlActor;verticalLabelPosition=bottom;verticalAlign=top;html=1;outlineConnect=0;labelBackgroundColor=none;" vertex="1" parent="1">
          <mxGeometry x="90" y="200" width="30" height="60" as="geometry" />
        </mxCell>
        <mxCell id="kZu3cFb_gc1OyNFdf9nU-6" value="" style="rounded=0;whiteSpace=wrap;html=1;rotation=90;labelBackgroundColor=none;" vertex="1" parent="1">
          <mxGeometry x="58.75" y="88.75" width="645" height="282.5" as="geometry" />
        </mxCell>
        <mxCell id="kZu3cFb_gc1OyNFdf9nU-7" value="" style="ellipse;whiteSpace=wrap;html=1;labelBackgroundColor=none;" vertex="1" parent="1">
          <mxGeometry x="330" y="-70" width="110" height="60" as="geometry" />
        </mxCell>
        <mxCell id="kZu3cFb_gc1OyNFdf9nU-8" value="" style="ellipse;whiteSpace=wrap;html=1;labelBackgroundColor=none;" vertex="1" parent="1">
          <mxGeometry x="326.25" y="10" width="110" height="60" as="geometry" />
        </mxCell>
        <mxCell id="kZu3cFb_gc1OyNFdf9nU-9" value="" style="ellipse;whiteSpace=wrap;html=1;labelBackgroundColor=none;" vertex="1" parent="1">
          <mxGeometry x="330" y="88.75" width="110" height="60" as="geometry" />
        </mxCell>
        <mxCell id="kZu3cFb_gc1OyNFdf9nU-10" value="" style="ellipse;whiteSpace=wrap;html=1;labelBackgroundColor=none;" vertex="1" parent="1">
          <mxGeometry x="330" y="170" width="110" height="60" as="geometry" />
        </mxCell>
        <mxCell id="kZu3cFb_gc1OyNFdf9nU-11" value="" style="ellipse;whiteSpace=wrap;html=1;labelBackgroundColor=none;" vertex="1" parent="1">
          <mxGeometry x="326.25" y="260" width="110" height="60" as="geometry" />
        </mxCell>
        <mxCell id="kZu3cFb_gc1OyNFdf9nU-12" value="" style="ellipse;whiteSpace=wrap;html=1;labelBackgroundColor=none;" vertex="1" parent="1">
          <mxGeometry x="326.25" y="340" width="110" height="60" as="geometry" />
        </mxCell>
        <mxCell id="kZu3cFb_gc1OyNFdf9nU-13" value="" style="ellipse;whiteSpace=wrap;html=1;labelBackgroundColor=none;" vertex="1" parent="1">
          <mxGeometry x="326.25" y="430" width="110" height="60" as="geometry" />
        </mxCell>
        <mxCell id="kZu3cFb_gc1OyNFdf9nU-18" value="ADD EVENT" style="text;html=1;strokeColor=none;fillColor=none;align=center;verticalAlign=middle;whiteSpace=wrap;rounded=0;labelBackgroundColor=none;" vertex="1" parent="1">
          <mxGeometry x="345.63" y="-52.5" width="78.75" height="25" as="geometry" />
        </mxCell>
        <mxCell id="kZu3cFb_gc1OyNFdf9nU-19" value="UPDATE EVENT" style="text;html=1;strokeColor=none;fillColor=none;align=center;verticalAlign=middle;whiteSpace=wrap;rounded=0;labelBackgroundColor=none;" vertex="1" parent="1">
          <mxGeometry x="335.01" y="103.75" width="99.99" height="30" as="geometry" />
        </mxCell>
        <mxCell id="kZu3cFb_gc1OyNFdf9nU-20" value="VIEW EVENT" style="text;html=1;strokeColor=none;fillColor=none;align=center;verticalAlign=middle;whiteSpace=wrap;rounded=0;labelBackgroundColor=none;" vertex="1" parent="1">
          <mxGeometry x="341.88" y="25" width="78.75" height="30" as="geometry" />
        </mxCell>
        <mxCell id="kZu3cFb_gc1OyNFdf9nU-21" value="DELETE EVENT" style="text;html=1;strokeColor=none;fillColor=none;align=center;verticalAlign=middle;whiteSpace=wrap;rounded=0;labelBackgroundColor=none;" vertex="1" parent="1">
          <mxGeometry x="335.01" y="185" width="98.75" height="30" as="geometry" />
        </mxCell>
        <mxCell id="kZu3cFb_gc1OyNFdf9nU-22" value="SEARCH EVENT" style="text;html=1;strokeColor=none;fillColor=none;align=center;verticalAlign=middle;whiteSpace=wrap;rounded=0;labelBackgroundColor=none;" vertex="1" parent="1">
          <mxGeometry x="335.02" y="275" width="98.74" height="30" as="geometry" />
        </mxCell>
        <mxCell id="kZu3cFb_gc1OyNFdf9nU-23" value="UPDATE STATUS" style="text;html=1;strokeColor=none;fillColor=none;align=center;verticalAlign=middle;whiteSpace=wrap;rounded=0;labelBackgroundColor=none;" vertex="1" parent="1">
          <mxGeometry x="335.01" y="355" width="98.75" height="30" as="geometry" />
        </mxCell>
        <mxCell id="kZu3cFb_gc1OyNFdf9nU-24" value="COMMENTS" style="text;html=1;strokeColor=none;fillColor=none;align=center;verticalAlign=middle;whiteSpace=wrap;rounded=0;labelBackgroundColor=none;" vertex="1" parent="1">
          <mxGeometry x="354.38" y="445" width="60" height="30" as="geometry" />
        </mxCell>
        <mxCell id="kZu3cFb_gc1OyNFdf9nU-36" value="" style="endArrow=none;html=1;rounded=0;exitX=0;exitY=0.5;exitDx=0;exitDy=0;" edge="1" parent="1" source="kZu3cFb_gc1OyNFdf9nU-7">
          <mxGeometry width="50" height="50" relative="1" as="geometry">
            <mxPoint x="320" y="150" as="sourcePoint" />
            <mxPoint x="120" y="220" as="targetPoint" />
          </mxGeometry>
        </mxCell>
        <mxCell id="kZu3cFb_gc1OyNFdf9nU-37" value="" style="endArrow=none;html=1;rounded=0;entryX=0;entryY=0.5;entryDx=0;entryDy=0;" edge="1" parent="1" target="kZu3cFb_gc1OyNFdf9nU-8">
          <mxGeometry width="50" height="50" relative="1" as="geometry">
            <mxPoint x="120" y="220" as="sourcePoint" />
            <mxPoint x="370" y="100" as="targetPoint" />
          </mxGeometry>
        </mxCell>
        <mxCell id="kZu3cFb_gc1OyNFdf9nU-38" value="" style="endArrow=none;html=1;rounded=0;" edge="1" parent="1">
          <mxGeometry width="50" height="50" relative="1" as="geometry">
            <mxPoint x="120" y="220" as="sourcePoint" />
            <mxPoint x="330" y="120" as="targetPoint" />
          </mxGeometry>
        </mxCell>
        <mxCell id="kZu3cFb_gc1OyNFdf9nU-39" value="" style="endArrow=none;html=1;rounded=0;entryX=0;entryY=0.75;entryDx=0;entryDy=0;" edge="1" parent="1" target="kZu3cFb_gc1OyNFdf9nU-21">
          <mxGeometry width="50" height="50" relative="1" as="geometry">
            <mxPoint x="120" y="220" as="sourcePoint" />
            <mxPoint x="370" y="270" as="targetPoint" />
          </mxGeometry>
        </mxCell>
        <mxCell id="kZu3cFb_gc1OyNFdf9nU-40" value="" style="endArrow=none;html=1;rounded=0;entryX=0;entryY=0.5;entryDx=0;entryDy=0;" edge="1" parent="1" target="kZu3cFb_gc1OyNFdf9nU-13">
          <mxGeometry width="50" height="50" relative="1" as="geometry">
            <mxPoint x="120" y="220" as="sourcePoint" />
            <mxPoint x="370" y="270" as="targetPoint" />
          </mxGeometry>
        </mxCell>
        <mxCell id="kZu3cFb_gc1OyNFdf9nU-41" value="" style="endArrow=none;html=1;rounded=0;entryX=0;entryY=0.3333333333333333;entryDx=0;entryDy=0;entryPerimeter=0;exitX=1;exitY=0.25;exitDx=0;exitDy=0;" edge="1" parent="1" source="kZu3cFb_gc1OyNFdf9nU-22" target="kZu3cFb_gc1OyNFdf9nU-2">
          <mxGeometry width="50" height="50" relative="1" as="geometry">
            <mxPoint x="320" y="320" as="sourcePoint" />
            <mxPoint x="370" y="270" as="targetPoint" />
          </mxGeometry>
        </mxCell>
        <mxCell id="kZu3cFb_gc1OyNFdf9nU-42" value="" style="endArrow=none;html=1;rounded=0;exitX=1;exitY=0.5;exitDx=0;exitDy=0;" edge="1" parent="1" source="kZu3cFb_gc1OyNFdf9nU-23">
          <mxGeometry width="50" height="50" relative="1" as="geometry">
            <mxPoint x="320" y="320" as="sourcePoint" />
            <mxPoint x="640" y="220" as="targetPoint" />
          </mxGeometry>
        </mxCell>
        <mxCell id="kZu3cFb_gc1OyNFdf9nU-43" value="" style="endArrow=none;html=1;rounded=0;exitX=1;exitY=0.5;exitDx=0;exitDy=0;" edge="1" parent="1" source="kZu3cFb_gc1OyNFdf9nU-13">
          <mxGeometry width="50" height="50" relative="1" as="geometry">
            <mxPoint x="320" y="320" as="sourcePoint" />
            <mxPoint x="640" y="220" as="targetPoint" />
          </mxGeometry>
        </mxCell>
      </root>
    </mxGraphModel>
  </diagram>
</mxfile>
